<svg width="20" height="20" viewBox="0 0 20 20" fill="none" xmlns="http://www.w3.org/2000/svg">
<path fill-rule="evenodd" clip-rule="evenodd" d="M2.58333 5.00065C2.58333 3.66596 3.66531 2.58398 5 2.58398H10C11.3347 2.58398 12.4167 3.66596 12.4167 5.00065V7.58398H13.3333C14.668 7.58398 15.75 8.66596 15.75 10.0007V12.9173C15.75 13.1935 15.9739 13.4173 16.25 13.4173C16.5261 13.4173 16.75 13.1935 16.75 12.9173V7.35767C16.75 7.11456 16.6534 6.8814 16.4815 6.70949L15.303 5.53098C15.0101 5.23809 15.0101 4.76321 15.303 4.47032C15.5959 4.17743 16.0708 4.17743 16.3637 4.47032L17.5422 5.64883C17.9954 6.10204 18.25 6.71673 18.25 7.35767V12.9173C18.25 14.0219 17.3546 14.9173 16.25 14.9173C15.1454 14.9173 14.25 14.0219 14.25 12.9173V10.0007C14.25 9.49439 13.8396 9.08398 13.3333 9.08398H12.4167V15.9173H12.5C12.9142 15.9173 13.25 16.2531 13.25 16.6673C13.25 17.0815 12.9142 17.4173 12.5 17.4173H2.5C2.08579 17.4173 1.75 17.0815 1.75 16.6673C1.75 16.2531 2.08579 15.9173 2.5 15.9173H2.58333V5.00065ZM4.08333 15.9173H10.9167V5.00065C10.9167 4.49439 10.5063 4.08398 10 4.08398H5C4.49374 4.08398 4.08333 4.49439 4.08333 5.00065V15.9173Z" fill="#0A0A0A"/>
<path fill-rule="evenodd" clip-rule="evenodd" d="M8.76926 6.05702C9.10632 6.29777 9.18439 6.76619 8.94363 7.10325L7.70739 8.83398H8.75C9.03094 8.83398 9.28832 8.99099 9.41687 9.2408C9.54543 9.4906 9.52359 9.7913 9.3603 10.0199L7.27697 12.9366C7.03621 13.2736 6.5678 13.3517 6.23074 13.111C5.89368 12.8702 5.81561 12.4018 6.05637 12.0647L7.29261 10.334H6.25C5.96906 10.334 5.71168 10.177 5.58312 9.92717C5.45457 9.67737 5.47641 9.37667 5.6397 9.14806L7.72303 6.23139C7.96379 5.89433 8.4322 5.81626 8.76926 6.05702Z" fill="#0A0A0A"/>
</svg>
